# xmcd
#
# Track frame offsets:
#	150
#	23107
#	42596
#	56950
#	78248
#	95147
#	107544
#	124713
#	139458
#	166021
#	184111
#
# Disc length: 2681 seconds
#
# Revision: 0
# Processed by: cddbd v1.5.2PL0 Copyright (c) Steve Scherf et al.
# Submitted via: dBpowerAMP V4.0
#
DISCID=950a770b
DTITLE=Tim McGraw - Sail On
DYEAR=2013
DGENRE=Country
TTITLE0=Sail On
TTITLE1=Twisted
TTITLE2=Owe Them More Than That
TTITLE3=Me And Tennessee
TTITLE4=Middle Age Crazy
TTITLE5=Can't Hurt A Man
TTITLE6=Find Out Who Your Friends Are
TTITLE7=Cold Cold Heart
TTITLE8=Milk Cow Blues
TTITLE9=Bring On The Rain
TTITLE10=It's Your Love
EXTD=
EXTT0=
EXTT1=
EXTT2=
EXTT3=
EXTT4=
EXTT5=
EXTT6=
EXTT7=
EXTT8=
EXTT9=
EXTT10=
PLAYORDER=
